<svg width="224" height="235" viewBox="0 0 224 235" fill="none" xmlns="http://www.w3.org/2000/svg">
<path fill-rule="evenodd" clip-rule="evenodd" d="M111.807 214.504C162.61 214.504 203.794 173.32 203.794 122.517C203.794 71.7135 162.61 30.5293 111.807 30.5293C61.0037 30.5293 19.8195 71.7135 19.8195 122.517C19.8195 173.32 61.0037 214.504 111.807 214.504Z" stroke="#3AD29F" stroke-width="0.613889" stroke-dasharray="3.68 3.68"/>
<path fill-rule="evenodd" clip-rule="evenodd" d="M111.807 234.017C173.387 234.017 223.307 184.097 223.307 122.517C223.307 60.9371 173.387 11.0168 111.807 11.0168C50.2272 11.0168 0.306946 60.9371 0.306946 122.517C0.306946 184.097 50.2272 234.017 111.807 234.017Z" stroke="#3AD29F" stroke-width="0.613889" stroke-dasharray="3.68 3.68"/>
<path d="M186.431 158.039C186.435 145.057 176.558 134.206 163.634 132.991C150.709 131.775 138.983 140.595 136.566 153.35L59.2626 151.253L60.1112 164.534C60.1112 164.534 49.0882 189.968 107.022 196.745V222.452H173.996V179.71C181.692 175.204 186.424 166.957 186.431 158.039Z" fill="url(#paint0_linear_93_1088)"/>
<path d="M62.7656 165.091C62.7656 165.091 52.2102 189.448 107.691 195.946V220.575H171.831V155.35L61.9417 152.371L62.7656 165.091Z" fill="#BE7C5E"/>
<path d="M94.8218 63.4497C91.3402 68.9436 84.0753 70.5945 78.5614 67.1447L44.1233 44.4513C38.6294 40.9697 36.9786 33.7049 40.4284 28.1909C43.9094 22.7045 51.165 21.0545 56.6764 24.4959L91.1144 47.1893C96.6127 50.6668 98.2693 57.9325 94.8218 63.4497Z" fill="url(#paint1_linear_93_1088)"/>
<path d="M92.9139 62.2108C89.6777 67.3175 82.9249 68.8521 77.7995 65.6456L45.7773 44.5349C40.6706 41.2987 39.136 34.5459 42.3425 29.4205C45.5787 24.3138 52.3315 22.7792 57.4569 25.9857L89.4729 47.0839C94.5893 50.3186 96.1276 57.0811 92.9139 62.2108Z" fill="#BE7C5E"/>
<path d="M159.656 182.956C172.959 182.956 183.743 172.172 183.743 158.869C183.743 145.566 172.959 134.782 159.656 134.782C146.353 134.782 135.569 145.566 135.569 158.869C135.569 172.172 146.353 182.956 159.656 182.956Z" fill="#BE7C5E"/>
<path d="M155.32 0H63.0474C60.952 0 59.2533 1.69868 59.2533 3.7941V176.452C59.2533 178.547 60.952 180.246 63.0474 180.246H155.32C157.415 180.246 159.114 178.547 159.114 176.452V3.7941C159.114 1.69868 157.415 0 155.32 0Z" fill="url(#paint2_linear_93_1088)"/>
<path d="M153.536 2.4375H64.8252C62.492 2.4375 60.6006 4.32892 60.6006 6.66211V173.59C60.6006 175.923 62.492 177.815 64.8252 177.815H153.536C155.869 177.815 157.76 175.923 157.76 173.59V6.66211C157.76 4.32892 155.869 2.4375 153.536 2.4375Z" fill="white"/>
<path d="M133.59 6.83557C133.009 10.6786 129.712 13.5235 125.825 13.5349H92.2697C88.3842 13.522 85.0886 10.6775 84.508 6.83557H66.73C65.7511 6.83557 64.8121 7.22303 64.1196 7.9149C63.4272 8.60677 63.0381 9.5455 63.0381 10.5244V169.722C63.0381 170.7 63.4255 171.64 64.1174 172.332C64.8093 173.024 65.748 173.413 66.7269 173.413H151.634C152.613 173.413 153.552 173.026 154.244 172.334C154.937 171.642 155.326 170.704 155.326 169.725V10.5275C155.326 9.5486 154.939 8.60954 154.247 7.91709C153.555 7.22464 152.616 6.83557 151.637 6.83557H133.59Z" fill="#365D47"/>
<path d="M119.525 8.93237H99.1115C98.7693 8.93237 98.492 9.20971 98.492 9.55182V9.66641C98.492 10.0085 98.7693 10.2859 99.1115 10.2859H119.525C119.867 10.2859 120.145 10.0085 120.145 9.66641V9.55182C120.145 9.20971 119.867 8.93237 119.525 8.93237Z" fill="#DBDBDB"/>
<path d="M124.744 10.4834C125.301 10.4834 125.753 10.0317 125.753 9.47438C125.753 8.9171 125.301 8.46533 124.744 8.46533C124.187 8.46533 123.735 8.9171 123.735 9.47438C123.735 10.0317 124.187 10.4834 124.744 10.4834Z" fill="#DBDBDB"/>
<path d="M175.226 163.118C168.235 164.735 163.438 160.176 161.821 153.189L145.759 93.5454C144.161 86.531 148.526 79.5423 155.53 77.9014C162.545 76.3032 169.534 80.6685 171.175 87.6731L184.282 148.856C185.899 155.846 182.213 161.502 175.226 163.118Z" fill="url(#paint3_linear_93_1088)"/>
<path d="M169.372 89.1331C168.01 83.2349 162.123 79.5582 156.225 80.921C150.327 82.2838 146.65 88.17 148.013 94.0683L162.783 157.993C164.146 163.891 170.032 167.568 175.93 166.205C181.828 164.842 185.505 158.956 184.142 153.057L169.372 89.1331Z" fill="#BE7C5E"/>
<path d="M183.641 212.516H91.963V233.887H183.641V212.516Z" fill="url(#paint4_linear_93_1088)"/>
<path d="M181.163 214.994H94.4408V231.719H181.163V214.994Z" fill="#1BFE7F"/>
<path d="M81.4541 127.432C78.0148 132.861 70.8368 134.492 65.3888 131.084L42.2929 116.14C36.8642 112.7 35.2327 105.522 38.6412 100.074C42.0805 94.6458 49.2585 93.0142 54.7065 96.4228L77.8025 111.367C83.2311 114.806 84.8627 121.984 81.4541 127.432Z" fill="url(#paint5_linear_93_1088)"/>
<path d="M75.6562 159.064C72.1862 164.542 64.9429 166.189 59.4453 162.75L45.1392 152.318C39.6608 148.848 38.014 141.605 41.4535 136.107C44.9235 130.629 52.1669 128.982 57.6644 132.422L71.9705 142.856C77.447 146.326 79.0936 153.567 75.6562 159.064Z" fill="url(#paint6_linear_93_1088)"/>
<g opacity="0.5">
<path opacity="0.5" d="M109.181 117.982C124.565 117.982 137.037 105.511 137.037 90.1261C137.037 74.7414 124.565 62.2697 109.181 62.2697C93.7958 62.2697 81.3241 74.7414 81.3241 90.1261C81.3241 105.511 93.7958 117.982 109.181 117.982Z" fill="url(#paint7_linear_93_1088)"/>
</g>
<path d="M109.18 116.344C123.66 116.344 135.398 104.606 135.398 90.1261C135.398 75.6463 123.66 63.9081 109.18 63.9081C94.7007 63.9081 82.9625 75.6463 82.9625 90.1261C82.9625 104.606 94.7007 116.344 109.18 116.344Z" fill="#69F0AE"/>
<path d="M97.8013 86.6262L107.632 95.6392L121.56 75.1572L126.478 79.2549L107.632 103.834L93.7037 88.2678L97.8013 86.6262Z" fill="white"/>
<path d="M74.5009 158.287C71.2647 163.393 64.5119 164.928 59.3865 161.721L46.0436 152.009C40.9369 148.772 39.4023 142.02 42.6088 136.894C45.8451 131.787 52.5978 130.253 57.7233 133.459L71.063 143.191C76.1595 146.425 77.6942 153.164 74.5009 158.287Z" fill="#BE7C5E"/>
<path d="M80.1843 126.611C76.948 131.718 70.1953 133.253 65.0698 130.046L43.3397 115.985C38.233 112.749 36.6984 105.996 39.9049 100.87C43.1411 95.7636 49.8939 94.229 55.0193 97.4355L76.7495 111.497C81.8561 114.733 83.3907 121.486 80.1843 126.611Z" fill="#BE7C5E"/>
<path d="M87.4256 95.9489C83.9693 101.401 76.7589 103.04 71.286 99.616L42.0172 80.5588C36.5648 77.1025 34.9265 69.8922 38.3501 64.4192C41.8063 58.9668 49.0167 57.3285 54.4897 60.7521L83.7585 79.8093C89.2109 83.2655 90.8492 90.4759 87.4256 95.9489Z" fill="url(#paint8_linear_93_1088)"/>
<path d="M85.8708 94.9578C82.6346 100.064 75.8818 101.599 70.7563 98.3926L43.3428 80.5433C38.2361 77.3071 36.7015 70.5543 39.908 65.4289C43.1442 60.3222 49.897 58.7876 55.0225 61.9941L82.4329 79.8434C87.5407 83.0786 89.0767 89.8316 85.8708 94.9578Z" fill="#BE7C5E"/>
<defs>
<linearGradient id="paint0_linear_93_1088" x1="122.852" y1="222.467" x2="122.852" y2="132.883" gradientUnits="userSpaceOnUse">
<stop stop-color="#808080" stop-opacity="0.25"/>
<stop offset="0.54" stop-color="#808080" stop-opacity="0.12"/>
<stop offset="1" stop-color="#808080" stop-opacity="0.1"/>
</linearGradient>
<linearGradient id="paint1_linear_93_1088" x1="67.622" y1="68.9504" x2="67.622" y2="22.6964" gradientUnits="userSpaceOnUse">
<stop stop-color="#808080" stop-opacity="0.25"/>
<stop offset="0.54" stop-color="#808080" stop-opacity="0.12"/>
<stop offset="1" stop-color="#808080" stop-opacity="0.1"/>
</linearGradient>
<linearGradient id="paint2_linear_93_1088" x1="109.184" y1="180.243" x2="109.184" y2="-0.00309413" gradientUnits="userSpaceOnUse">
<stop stop-color="#808080" stop-opacity="0.25"/>
<stop offset="0.54" stop-color="#808080" stop-opacity="0.12"/>
<stop offset="1" stop-color="#808080" stop-opacity="0.1"/>
</linearGradient>
<linearGradient id="paint3_linear_93_1088" x1="165.042" y1="163.44" x2="165.042" y2="77.5669" gradientUnits="userSpaceOnUse">
<stop stop-color="#808080" stop-opacity="0.25"/>
<stop offset="0.54" stop-color="#808080" stop-opacity="0.12"/>
<stop offset="1" stop-color="#808080" stop-opacity="0.1"/>
</linearGradient>
<linearGradient id="paint4_linear_93_1088" x1="137.808" y1="233.881" x2="137.808" y2="212.51" gradientUnits="userSpaceOnUse">
<stop stop-color="#808080" stop-opacity="0.25"/>
<stop offset="0.54" stop-color="#808080" stop-opacity="0.12"/>
<stop offset="1" stop-color="#808080" stop-opacity="0.1"/>
</linearGradient>
<linearGradient id="paint5_linear_93_1088" x1="60.043" y1="132.865" x2="60.043" y2="94.645" gradientUnits="userSpaceOnUse">
<stop stop-color="#808080" stop-opacity="0.25"/>
<stop offset="0.54" stop-color="#808080" stop-opacity="0.12"/>
<stop offset="1" stop-color="#808080" stop-opacity="0.1"/>
</linearGradient>
<linearGradient id="paint6_linear_93_1088" x1="58.5564" y1="164.546" x2="58.5564" y2="130.622" gradientUnits="userSpaceOnUse">
<stop stop-color="#808080" stop-opacity="0.25"/>
<stop offset="0.54" stop-color="#808080" stop-opacity="0.12"/>
<stop offset="1" stop-color="#808080" stop-opacity="0.1"/>
</linearGradient>
<linearGradient id="paint7_linear_93_1088" x1="109.181" y1="117.982" x2="109.181" y2="62.2666" gradientUnits="userSpaceOnUse">
<stop stop-color="#808080" stop-opacity="0.25"/>
<stop offset="0.54" stop-color="#808080" stop-opacity="0.12"/>
<stop offset="1" stop-color="#808080" stop-opacity="0.1"/>
</linearGradient>
<linearGradient id="paint8_linear_93_1088" x1="62.8863" y1="101.416" x2="62.8863" y2="58.9743" gradientUnits="userSpaceOnUse">
<stop stop-color="#808080" stop-opacity="0.25"/>
<stop offset="0.54" stop-color="#808080" stop-opacity="0.12"/>
<stop offset="1" stop-color="#808080" stop-opacity="0.1"/>
</linearGradient>
</defs>
</svg>
